<svg xmlns="http://www.w3.org/2000/svg" width="24" height="24" style="enable-background:new 0 0 55.364 55.364" xml:space="preserve" viewBox="0 0 55.364 55.364"><path style="fill-rule:evenodd;clip-rule:evenodd;fill:#461673" d="M48.807 39.152c-.27-2.816-2.764-5.027-5.669-5.027a.622.622 0 0 1-.624-.628v-9.371c0-6.96-4.421-13.029-10.509-15.296.071-.358.11-.724.11-1.09 0-2.999-2.415-5.433-5.392-5.433-2.976 0-5.392 2.434-5.392 5.433 0 .358.039.716.103 1.058a15.672 15.672 0 0 0-5.676 3.54c-3.111 3.022-4.824 7.087-4.824 11.446v9.713a.627.627 0 0 1-.624.628c-2.914 0-5.4 2.211-5.669 5.027a5.6 5.6 0 0 0 1.413 4.287 5.528 5.528 0 0 0 4.09 1.822h9.521c.395 3.571 3.411 6.363 7.058 6.363 3.648 0 6.664-2.792 7.058-6.363h9.522a5.526 5.526 0 0 0 4.089-1.822 5.656 5.656 0 0 0 1.415-4.287zM26.724 5.488a2.247 2.247 0 0 1 2.235 2.251c0 .104-.017.199-.032.302a14.017 14.017 0 0 0-1.626-.151 16.166 16.166 0 0 0-2.779.159c-.016-.104-.032-.199-.032-.302 0-1.248 1.002-2.259 2.234-2.259zm0 42.954c-1.902 0-3.497-1.368-3.869-3.182h7.737c-.371 1.814-1.966 3.182-3.868 3.182zm18.34-7.143a2.37 2.37 0 0 1-1.76.779h-33.16c-.679 0-1.294-.278-1.752-.779s-.671-1.161-.608-1.846c.11-1.201 1.224-2.147 2.527-2.147 2.084 0 3.781-1.71 3.781-3.81v-9.713c0-3.484 1.374-6.737 3.861-9.156a12.467 12.467 0 0 1 8.771-3.571c.158 0 .308 0 .466.008 6.703.239 12.166 6.101 12.166 13.061v9.371c0 2.1 1.697 3.81 3.782 3.81 1.303 0 2.408.946 2.526 2.147a2.408 2.408 0 0 1-.6 1.846z"/></svg>