<svg xmlns="http://www.w3.org/2000/svg" width="27.682" height="27.682" style="enable-background:new 0 0 27.682 27.682" xml:space="preserve"><path fill="#000" style="fill-rule:evenodd;clip-rule:evenodd;" d="m23.712 16.73-.011.007-3.466 2.565a3.94 3.94 0 0 1-1.092.524 2.374 2.374 0 0 0-.104-1.79 2.373 2.373 0 0 0-1.404-1.243l-6.93-2.298c-.977-.326-2.179-.427-3.298-.274-1.333.181-2.505.726-3.438 1.552H1.066a.799.799 0 0 0-.798.8v7.995c0 .441.357.799.798.799h3.19c.44 0 .798-.357.798-.799v-.598l6.256 1.426a15.4 15.4 0 0 0 3.393.399l.147-.001c3.027-.036 5.952-1.002 8.456-2.795l.012-.008 3.181-2.362c.529-.381.884-.971.974-1.617a2.412 2.412 0 0 0-.502-1.828 2.388 2.388 0 0 0-3.259-.454zM3.458 23.769H1.863v-6.396h1.595v6.396zm22.108-4.437a.083.083 0 0 1-.012.008l-3.181 2.362c-2.236 1.599-4.844 2.461-7.542 2.493a13.75 13.75 0 0 1-3.167-.358l-6.611-1.506v-5.385c1.719-1.501 4.09-1.287 5.149-.933l6.93 2.298a.791.791 0 0 1 .468.414c.094.198.104.42.027.625a.796.796 0 0 1-.999.478l-.005-.001-4.885-1.615a.8.8 0 0 0-.5 1.519l4.917 1.626a5.597 5.597 0 0 0 5.022-.764l3.465-2.564a.798.798 0 0 1 .924 1.303zM18.778 8.957c.426.228.917.319 1.393.408.355.066.724.135.932.246.103.054.106.069.106.167 0 .055-.095.16-.27.248-.435.218-1.049.2-1.367-.04-.353-.265-.853-.193-1.117.16s-.192.854.159 1.119c.262.197.573.331.904.415v.203a.798.798 0 1 0 1.596 0v-.235c.184-.051.367-.106.539-.192.731-.367 1.151-.979 1.151-1.678s-.329-1.245-.95-1.578c-.426-.228-.917-.319-1.393-.408-.356-.066-.724-.134-.932-.246-.103-.055-.106-.07-.106-.167 0-.057.092-.16.268-.248.436-.219 1.05-.201 1.369.04a.797.797 0 0 0 1.117-.16.802.802 0 0 0-.16-1.12c-.261-.196-.574-.315-.903-.399v-.218a.798.798 0 1 0-1.596 0v.244c-.184.052-.369.098-.54.184-.731.366-1.15.978-1.15 1.678 0 .699.329 1.245.95 1.577zm1.538 6.816c3.959 0 7.179-3.228 7.179-7.195s-3.22-7.195-7.179-7.195-7.179 3.228-7.179 7.195 3.22 7.195 7.179 7.195zm0-12.791c3.079 0 5.584 2.51 5.584 5.596s-2.505 5.596-5.584 5.596-5.584-2.51-5.584-5.596 2.505-5.596 5.584-5.596z"/></svg>