<svg xmlns="http://www.w3.org/2000/svg" width="69.205" height="69.205" style="enable-background:new 0 0 69.205 69.205" xml:space="preserve"><path style="fill-rule:evenodd;clip-rule:evenodd;fill:#8f819f" d="M18.787 20.29c-.938 0-1.741-.584-1.741-1.273a1.564 1.564 0 1 0-3.128 0 4.443 4.443 0 0 0 3.306 4.173v.72a1.563 1.563 0 1 0 3.127 0v-.772a4.443 4.443 0 0 0 3.305-4.173 4.661 4.661 0 0 0-4.87-4.392c-.938 0-1.741-.574-1.741-1.262s.803-1.262 1.741-1.262c.938 0 1.742.574 1.742 1.262a1.565 1.565 0 1 0 3.128 0 4.444 4.444 0 0 0-3.305-4.173V8.46a1.564 1.564 0 1 0-3.127 0v.761a4.445 4.445 0 0 0-3.306 4.173 4.662 4.662 0 0 0 4.869 4.392c.938 0 1.742.584 1.742 1.263 0 .678-.803 1.241-1.742 1.241zm.011 9.577a13.677 13.677 0 0 0 12.293-7.72 13.564 13.564 0 0 0 1.043-8.94l8.405-2.921-1.251 2.566a1.554 1.554 0 0 0 .714 2.079l.016.008c.209.11.441.167.678.167.61.006 1.17-.338 1.438-.887l2.847-5.957a1.575 1.575 0 0 0-.761-2.086l-5.923-2.911a1.564 1.564 0 0 0-2.086.73c-.106.209-.16.442-.155.678a1.562 1.562 0 0 0 .865 1.408l2.586 1.242-8.416 2.931C27.809 3.459 19.641.612 12.849 3.896 6.057 7.18 3.211 15.352 6.494 22.147a13.66 13.66 0 0 0 12.304 7.72zM15.206 6.269l.12-.041c5.5-1.913 11.507.998 13.418 6.499 1.912 5.502-.997 11.513-6.497 13.425-5.499 1.912-11.506-.998-13.418-6.499-1.933-5.457.921-11.449 6.377-13.384zm49.868 54.674h-2.606V16.91c0-.864-.7-1.565-1.564-1.565H48.641c-.863 0-1.563.701-1.563 1.565v44.033h-3.504V33.497c0-.864-.7-1.565-1.564-1.565H29.747c-.864 0-1.564.701-1.564 1.565v27.446H24.69V43.877c0-.864-.7-1.565-1.564-1.565H10.852c-.864 0-1.564.701-1.564 1.565v17.066H6.681a1.565 1.565 0 0 0 0 3.129h58.393a1.564 1.564 0 1 0 0-3.129zm-43.513 0h-9.145V45.441h9.145v15.502zm18.884 0H31.31V35.062h9.135v25.881zm18.894 0h-9.134V18.475h9.134v42.468z"/></svg>