<svg xmlns="http://www.w3.org/2000/svg" width="69.205" height="69.205" style="enable-background:new 0 0 69.205 69.205" xml:space="preserve"><path style="fill-rule:evenodd;clip-rule:evenodd;fill:#381d5a" d="M46.825 13.973c-3.692 0-6.696 3.004-6.696 6.696s3.004 6.696 6.696 6.696 6.696-3.004 6.696-6.696-3.003-6.696-6.696-6.696zm0 9.867a3.175 3.175 0 0 1-3.172-3.171c0-1.749 1.423-3.171 3.172-3.171s3.172 1.422 3.172 3.171a3.175 3.175 0 0 1-3.172 3.171zm15.096 6.424-1.313-17.065a6.824 6.824 0 0 0-6.313-6.313L37.229 5.574c-2.058-.158-3.917.529-5.375 1.988L7.481 31.935c-1.246 1.245-1.932 2.906-1.932 4.677s.686 3.432 1.932 4.677l18.724 18.723a6.593 6.593 0 0 0 4.677 1.935 6.593 6.593 0 0 0 4.677-1.935L59.933 35.64c1.459-1.46 2.146-3.319 1.988-5.376zm-4.481 2.883L33.067 57.52a3.095 3.095 0 0 1-4.37 0L9.973 38.796c-.58-.58-.899-1.355-.899-2.185s.32-1.604.899-2.185l24.374-24.373c.656-.657 1.415-.979 2.31-.979.1 0 .201.004.304.012L54.026 10.4a3.316 3.316 0 0 1 3.068 3.068l1.313 17.065c.079 1.03-.237 1.884-.967 2.614z"/></svg>