<svg xmlns="http://www.w3.org/2000/svg" width="69.205" height="69.205" style="enable-background:new 0 0 69.205 69.205" xml:space="preserve"><path style="fill-rule:evenodd;clip-rule:evenodd;fill:#8f819f" d="M59.405 56.526h-7.46c-1.048-3.545-4.808-5.579-8.396-4.543a6.73 6.73 0 0 0-4.6 4.543h-31.8a1.936 1.936 0 0 0-1.948 1.925c0 1.062.872 1.923 1.948 1.923h31.806c1.054 3.544 4.816 5.572 8.403 4.531a6.73 6.73 0 0 0 4.587-4.531h7.46a1.935 1.935 0 0 0 1.947-1.923 1.935 1.935 0 0 0-1.947-1.925zm-13.951 4.81c-1.613 0-2.922-1.292-2.922-2.885 0-1.595 1.309-2.886 2.922-2.886s2.922 1.291 2.922 2.886c0 1.593-1.309 2.885-2.922 2.885zM57.517 7.469h-46.2c-3.376.003-6.112 2.706-6.116 6.041v30.243c.003 3.334 2.74 6.037 6.116 6.04h46.199c3.376-.003 6.112-2.706 6.115-6.04V13.51c-.002-3.335-2.738-6.038-6.114-6.041zm2.219 36.284c-.001 1.21-.995 2.191-2.22 2.192H11.317c-1.226-.001-2.219-.982-2.22-2.192V13.51c.001-1.211.995-2.192 2.22-2.193h46.199c1.225.001 2.219.982 2.22 2.193v30.243zM45.188 26.992V27l-15.582-9.62a1.962 1.962 0 0 0-2.684.612 1.911 1.911 0 0 0-.296 1.02V38.25c0 1.063.872 1.924 1.948 1.924.365 0 .723-.102 1.032-.292l15.582-9.62a1.91 1.91 0 0 0 0-3.27zm-14.667 7.795V22.475l9.958 6.156-9.958 6.156z"/></svg>