<svg xmlns="http://www.w3.org/2000/svg" width="69.205" height="69.205" style="enable-background:new 0 0 69.205 69.205" xml:space="preserve"><path style="fill-rule:evenodd;clip-rule:evenodd;fill:#381d5a" d="M33.612 21.572c-6.808 0-12.347 5.583-12.347 12.446 0 6.862 5.539 12.445 12.347 12.445s12.347-5.583 12.347-12.445-5.539-12.446-12.347-12.446zm0 19.846c-4.048 0-7.341-3.319-7.341-7.399 0-4.081 3.293-7.4 7.341-7.4s7.342 3.319 7.342 7.4c0 4.08-3.294 7.399-7.342 7.399zm29.221-2.267-2.665-2.212c-.87-.721-1.368-1.786-1.368-2.921s.498-2.2 1.368-2.921l2.665-2.212a5.057 5.057 0 0 0 1.153-6.418l-5.263-9.188a4.971 4.971 0 0 0-6.091-2.202l-3.232 1.22a3.718 3.718 0 0 1-3.194-.266 3.771 3.771 0 0 1-1.826-2.655l-.567-3.433c-.403-2.443-2.48-4.216-4.938-4.216H28.35c-2.457 0-4.533 1.773-4.937 4.216l-.568 3.433a3.772 3.772 0 0 1-1.826 2.655 3.715 3.715 0 0 1-3.194.266l-3.233-1.221a4.97 4.97 0 0 0-6.09 2.202l-5.263 9.188a5.058 5.058 0 0 0 1.154 6.418l2.666 2.212c.869.721 1.368 1.786 1.368 2.921s-.499 2.201-1.368 2.921L4.393 39.15a5.058 5.058 0 0 0-1.154 6.418l5.263 9.188a4.969 4.969 0 0 0 6.09 2.202l3.233-1.221c1.055-.397 2.219-.301 3.194.267s1.641 1.535 1.826 2.655l.568 3.433c.404 2.442 2.48 4.216 4.937 4.216h10.525c2.457 0 4.534-1.773 4.938-4.216l.567-3.433c.186-1.12.851-2.088 1.826-2.655s2.14-.665 3.194-.267l3.232 1.221a4.971 4.971 0 0 0 6.091-2.202l5.263-9.188a5.057 5.057 0 0 0-1.153-6.417zm-8.444 13.084-3.232-1.221a8.671 8.671 0 0 0-7.453.621 8.808 8.808 0 0 0-4.261 6.195l-.567 3.433H28.35l-.567-3.433a8.804 8.804 0 0 0-4.26-6.195 8.692 8.692 0 0 0-4.375-1.186 8.713 8.713 0 0 0-3.078.564l-3.233 1.221-5.263-9.188 2.665-2.212a8.828 8.828 0 0 0 3.192-6.817 8.832 8.832 0 0 0-3.192-6.817l-2.665-2.212 5.263-9.188 3.233 1.22c2.46.93 5.177.703 7.453-.621a8.804 8.804 0 0 0 4.26-6.195l.567-3.433h10.525l.567 3.433a8.8 8.8 0 0 0 4.261 6.195 8.671 8.671 0 0 0 7.453.621l3.232-1.221 5.265 9.188-.002.001-2.665 2.211a8.83 8.83 0 0 0-3.192 6.817 8.83 8.83 0 0 0 3.192 6.817l2.665 2.212-5.262 9.19z"/></svg>