<svg xmlns="http://www.w3.org/2000/svg" width="69.205" height="69.205" style="enable-background:new 0 0 69.205 69.205" xml:space="preserve"><path style="fill-rule:evenodd;clip-rule:evenodd;fill:#381d5a" d="M43.278 34.554 28.18 25.538c-1.278-.764-2.917.159-2.917 1.657V45.2c0 1.505 1.641 2.415 2.917 1.659l15.096-8.99c1.255-.748 1.252-2.564.002-3.315zm-14.156 7.254V30.592l9.4 5.616-9.4 5.6zm34.074-18.714c-.822-4.879-4.596-8.64-9.385-9.35-11.968-1.778-28.687-1.778-40.66 0-4.789.71-8.562 4.47-9.385 9.352-1.533 9.063-1.533 17.142 0 26.201.823 4.885 4.596 8.643 9.385 9.353 5.999.89 13.18 1.335 20.358 1.335 7.166 0 14.329-.442 20.305-1.333 4.783-.71 8.554-4.468 9.382-9.353 1.533-9.061 1.533-17.143 0-26.205zm-3.803 25.563c-.548 3.23-3.017 5.716-6.147 6.179-11.62 1.726-27.875 1.726-39.527-.003-3.133-.466-5.604-2.947-6.15-6.179-1.476-8.73-1.476-16.182 0-24.917.548-3.231 3.017-5.711 6.152-6.179 5.818-.862 12.791-1.294 19.759-1.294 6.973 0 13.946.432 19.764 1.294 3.133.465 5.604 2.948 6.149 6.179 1.476 8.736 1.476 16.187 0 24.92z"/></svg>