<svg xmlns="http://www.w3.org/2000/svg" width="69.205" height="69.205" style="enable-background:new 0 0 69.205 69.205" xml:space="preserve"><path style="fill-rule:evenodd;clip-rule:evenodd;fill:#8f819f" d="M50.416 8.038a.42.42 0 0 0-.305-.126h-5.239c-.12 0-.18-.059-.18-.179V2.422a.416.416 0 0 0-.126-.305.419.419 0 0 0-.305-.125H41.57a.416.416 0 0 0-.305.125.416.416 0 0 0-.126.305v5.311c0 .12-.06.179-.179.179h-5.275a.413.413 0 0 0-.305.126.412.412 0 0 0-.126.305v2.728c0 .12.041.221.126.305a.412.412 0 0 0 .305.125h5.275c.119 0 .179.06.179.179v5.167c0 .12.042.221.126.305a.413.413 0 0 0 .305.126h2.691a.416.416 0 0 0 .305-.126.413.413 0 0 0 .126-.305V11.68c0-.12.06-.179.18-.179h5.239a.419.419 0 0 0 .305-.125.42.42 0 0 0 .126-.305V8.343a.42.42 0 0 0-.126-.305zM64.02 21.76a1.768 1.768 0 0 0-1.545-.291l-24.941 7.059a1.764 1.764 0 0 0-1.284 1.698v23.889a7.008 7.008 0 0 0-3.529-.949 7.067 7.067 0 0 0-7.059 7.059c0 3.892 3.167 7.059 7.059 7.059a7.067 7.067 0 0 0 7.059-7.059V38.62l21.412-6.06v14.497a7.009 7.009 0 0 0-3.53-.949c-3.892 0-7.058 3.167-7.058 7.059s3.166 7.059 7.058 7.059c3.893 0 7.06-3.167 7.06-7.059V23.169a1.777 1.777 0 0 0-.702-1.409zm-31.3 41.994c-1.946 0-3.529-1.583-3.529-3.529s1.583-3.529 3.529-3.529 3.529 1.583 3.529 3.529-1.583 3.529-3.529 3.529zm24.941-7.059c-1.946 0-3.529-1.583-3.529-3.529s1.583-3.529 3.529-3.529 3.529 1.583 3.529 3.529-1.583 3.529-3.529 3.529zm3.529-27.803-21.412 6.06v-3.391l21.412-6.06v3.391zm-28.47-2.195c0-2.8-1.35-5.462-3.611-7.12-3.915-2.87-6.784-5.712-8.769-8.69l-2.034-3.05a1.763 1.763 0 0 0-3.232.979V36.47a7.008 7.008 0 0 0-3.529-.949c-3.892 0-7.059 3.166-7.059 7.058s3.167 7.059 7.059 7.059 7.059-3.167 7.059-7.059v-28.07c2.109 2.718 4.881 5.322 8.42 7.915a5.319 5.319 0 0 1 2.168 4.274 5.3 5.3 0 0 1-5.294 5.293 1.766 1.766 0 0 0 0 3.53c4.864 0 8.822-3.959 8.822-8.824zm-21.176 19.41c-1.946 0-3.529-1.583-3.529-3.529s1.583-3.529 3.529-3.529 3.529 1.583 3.529 3.529-1.583 3.529-3.529 3.529z"/></svg>