<svg xmlns="http://www.w3.org/2000/svg" width="69.205" height="69.205" style="enable-background:new 0 0 69.205 69.205" xml:space="preserve"><path style="fill-rule:evenodd;clip-rule:evenodd;fill:#8f819f" d="M18.523 26.165c.498 0 .995-.189 1.375-.569l6.401-6.4 5.429 5.428c.759.759 1.99.759 2.749 0l4.458-4.457.569.569a1.939 1.939 0 0 0 1.937.487 1.943 1.943 0 0 0 1.343-1.479l.973-4.859a1.94 1.94 0 0 0-.532-1.755 1.94 1.94 0 0 0-1.756-.532l-4.859.972a1.944 1.944 0 0 0-.993 3.28l.569.57-3.084 3.08-5.429-5.428a1.944 1.944 0 0 0-2.749 0l-7.775 7.775a1.944 1.944 0 0 0 1.374 3.318zm33.044 5.881V9.643a4.865 4.865 0 0 0-4.859-4.859H13.664a4.865 4.865 0 0 0-4.859 4.859v41.791c0 .516.205 1.011.569 1.375l11.663 11.662c.365.365.859.569 1.375.569H42.618a17.373 17.373 0 0 0 7.979 1.944c9.646 0 17.494-7.849 17.494-17.494-.001-9.318-7.33-16.935-16.524-17.444zm-31.1 26.358-5.026-5.026h5.026v5.026zm3.888 2.748v-9.719a1.945 1.945 0 0 0-1.944-1.943h-9.719V9.643c0-.535.436-.972.972-.972h33.044c.537 0 .972.437.972.972v22.354H18.523a1.944 1.944 0 0 0 0 3.887h21.101a17.643 17.643 0 0 0-3.564 3.888H18.523a1.944 1.944 0 0 0 0 3.887h15.599a17.372 17.372 0 0 0-1.021 5.831c0 4.482 1.71 8.564 4.492 11.662H24.355zm26.241 1.945c-7.503 0-13.606-6.104-13.606-13.606s6.104-13.606 13.606-13.606 13.606 6.104 13.606 13.606-6.103 13.606-13.606 13.606zm-.487-18.466h4.374a1.944 1.944 0 0 0 0-3.887h-1.944a1.944 1.944 0 0 0-3.886 0v.207c-2.24.637-3.888 2.697-3.888 5.139a5.351 5.351 0 0 0 5.345 5.345h.973a1.459 1.459 0 0 1 0 2.916h-4.374a1.944 1.944 0 0 0 0 3.887h1.944a1.943 1.943 0 0 0 3.886 0v-.208c2.24-.637 3.888-2.697 3.888-5.139a5.351 5.351 0 0 0-5.345-5.345h-.973a1.459 1.459 0 0 1 0-2.915z"/></svg>