<svg xmlns="http://www.w3.org/2000/svg" width="24" height="24" style="enable-background:new 0 0 55.364 55.364" xml:space="preserve" viewBox="0 0 55.364 55.364"><path style="fill-rule:evenodd;clip-rule:evenodd;fill:#461673" d="M27.943 18.741c-5.235 0-9.496 4.294-9.496 9.572 0 5.277 4.26 9.571 9.496 9.571s9.496-4.294 9.496-9.571c0-5.278-4.261-9.572-9.496-9.572zm0 15.262c-3.113 0-5.646-2.553-5.646-5.69 0-3.138 2.533-5.691 5.646-5.691s5.646 2.553 5.646 5.691c-.001 3.138-2.533 5.69-5.646 5.69zm22.473-1.743-2.05-1.701a2.907 2.907 0 0 1-1.052-2.246c0-.874.383-1.692 1.052-2.247l2.05-1.701a3.89 3.89 0 0 0 .888-4.936l-4.048-7.066a3.823 3.823 0 0 0-4.685-1.693l-2.486.938c-.811.307-1.706.232-2.456-.205s-1.262-1.181-1.404-2.042l-.437-2.64a3.847 3.847 0 0 0-3.797-3.242h-8.095a3.847 3.847 0 0 0-3.797 3.242l-.436 2.64a2.906 2.906 0 0 1-1.404 2.042 2.858 2.858 0 0 1-2.457.205l-2.486-.938a3.823 3.823 0 0 0-4.684 1.693l-4.047 7.066a3.889 3.889 0 0 0 .887 4.936l2.05 1.701a2.909 2.909 0 0 1 1.052 2.247c0 .873-.383 1.691-1.052 2.246L5.47 32.26a3.891 3.891 0 0 0-.887 4.937l4.047 7.066a3.823 3.823 0 0 0 4.684 1.693l2.486-.938a2.858 2.858 0 0 1 2.457.205 2.9 2.9 0 0 1 1.404 2.042l.436 2.64a3.847 3.847 0 0 0 3.797 3.242h8.095a3.846 3.846 0 0 0 3.797-3.242l.437-2.64c.143-.861.654-1.605 1.404-2.042s1.646-.512 2.456-.205l2.486.938a3.824 3.824 0 0 0 4.685-1.693l4.048-7.066a3.889 3.889 0 0 0-.886-4.937zm-6.495 10.063-2.486-.938a6.663 6.663 0 0 0-5.731.479 6.77 6.77 0 0 0-3.277 4.764l-.436 2.64h-8.095l-.437-2.64a6.765 6.765 0 0 0-3.276-4.764 6.68 6.68 0 0 0-5.732-.478l-2.486.938-4.047-7.066 2.05-1.701a6.788 6.788 0 0 0 2.455-5.242 6.79 6.79 0 0 0-2.455-5.243l-2.05-1.701 4.047-7.067 2.486.939a6.665 6.665 0 0 0 5.732-.478 6.767 6.767 0 0 0 3.276-4.764l.437-2.64h8.095l.436 2.64c.333 2.009 1.527 3.746 3.277 4.764s3.84 1.193 5.731.478l2.486-.939 4.049 7.066-.001.001-2.05 1.701a6.788 6.788 0 0 0-2.455 5.243c0 2.037.895 3.948 2.455 5.242l2.05 1.701-4.048 7.065z"/></svg>