<?xml version="1.0" encoding="utf-8"?>
<!-- Generator: Adobe Illustrator 15.1.0, SVG Export Plug-In . SVG Version: 6.00 Build 0)  -->
<!DOCTYPE svg PUBLIC "-//W3C//DTD SVG 1.1//EN" "http://www.w3.org/Graphics/SVG/1.1/DTD/svg11.dtd">
<svg version="1.1" id="Shape_1_1_" xmlns="http://www.w3.org/2000/svg" xmlns:xlink="http://www.w3.org/1999/xlink" x="0px" y="0px"
	 width="99.988px" height="105.986px" viewBox="0 0 99.988 105.986" enable-background="new 0 0 99.988 105.986"
	 xml:space="preserve">
<g id="Shape_1">
	<g>
		<path fill-rule="evenodd" clip-rule="evenodd" d="M68.139,8.182c0.395,0.149,1.001,0.039,1.454,0.038h16.021
			c0.336-0.006,0.673-0.013,1.009-0.019c0.774-0.198,1.631-0.863,1.784-1.691c0.156-0.839-0.111-1.506-0.484-1.885
			c-0.21-0.213-0.421-0.549-0.718-0.661c-0.837-0.317-2.613-0.136-3.705-0.136h-15.09c-0.239,0.038-0.479,0.077-0.718,0.116
			c-0.384,0.135-0.904,0.683-1.105,1.011c-0.129,0.209-0.108,0.459-0.155,0.758C66.204,7.16,67.208,7.829,68.139,8.182z
			 M79.738,21.046c0.146,0.071,0.177,0.21,0.271,0.33c0.168,0.13,0.336,0.259,0.505,0.389c0.097,0.239,0.193,0.479,0.29,0.719
			c0.123,0.155,0.246,0.312,0.369,0.467c0.07,0.188,0.143,0.376,0.213,0.563c0.116,0.136,0.232,0.272,0.35,0.408
			c0.116,0.259,0.232,0.519,0.349,0.777c0.104,0.11,0.207,0.221,0.311,0.33c0.109,0.246,0.22,0.493,0.33,0.739
			c0.142,0.175,0.284,0.35,0.427,0.524c0.157,0.305,0.188,0.545,0.445,0.738c0.846,0.636,1.667,0.951,2.677,0.253
			c0.267-0.185,0.57-0.303,0.737-0.583c0.4-0.672,0.366-1.869-0.02-2.526c-0.161-0.214-0.323-0.427-0.484-0.641
			c-0.052-0.155-0.104-0.311-0.155-0.467c-0.151-0.267-0.361-0.479-0.524-0.777c-0.168-0.308-0.375-0.548-0.543-0.816
			c-0.097-0.227-0.193-0.453-0.291-0.68c-0.129-0.155-0.258-0.312-0.388-0.467c-0.058-0.168-0.116-0.337-0.175-0.505
			c-0.142-0.182-0.284-0.363-0.426-0.544c-0.104-0.233-0.207-0.466-0.311-0.7c-0.11-0.123-0.22-0.246-0.33-0.369
			c-0.104-0.24-0.207-0.479-0.311-0.719c-0.116-0.137-0.232-0.272-0.349-0.408c-0.064-0.182-0.13-0.363-0.194-0.545
			c-0.148-0.194-0.298-0.389-0.446-0.583c-0.084-0.214-0.168-0.428-0.252-0.641c-0.123-0.149-0.246-0.299-0.368-0.447
			c-0.117-0.266-0.232-0.531-0.35-0.797c-0.097-0.104-0.193-0.207-0.291-0.312l-0.349-0.797c-0.774-1.09-1.348-2.083-3.239-2.079
			c-0.465,0.185-0.918,0.064-1.3,0.33c-0.311,0.259-0.62,0.518-0.931,0.777c-0.091,0.182-0.182,0.363-0.271,0.545
			c-0.136,0.168-0.271,0.337-0.407,0.505c-0.085,0.201-0.169,0.401-0.253,0.603c-0.116,0.136-0.232,0.272-0.349,0.408
			c-0.104,0.233-0.207,0.467-0.311,0.699c-0.136,0.169-0.271,0.337-0.407,0.506c-0.064,0.182-0.129,0.362-0.193,0.544
			c-0.136,0.169-0.271,0.336-0.408,0.505c-0.084,0.2-0.168,0.401-0.252,0.602c-0.123,0.149-0.245,0.299-0.368,0.447
			c-0.11,0.253-0.22,0.506-0.33,0.758c-0.123,0.149-0.246,0.299-0.368,0.447c-0.078,0.207-0.155,0.415-0.233,0.622l-0.407,0.524
			c-0.071,0.201-0.142,0.402-0.213,0.603c-0.13,0.162-0.259,0.324-0.389,0.486c-0.09,0.227-0.181,0.453-0.271,0.68
			c-0.109,0.13-0.219,0.26-0.329,0.389c-0.104,0.247-0.207,0.493-0.311,0.739c-0.084,0.172-0.248,0.281-0.349,0.428
			c-0.11,0.259-0.22,0.518-0.33,0.777c-0.143,0.187-0.284,0.375-0.427,0.563c-0.668,1.433-0.095,2.631,0.893,3.284
			c0.359,0.237,1.406,0.215,1.823,0.039c0.258-0.194,0.517-0.389,0.775-0.583c0.228-0.198,0.263-0.404,0.407-0.7l0.407-0.524
			c0.091-0.227,0.182-0.453,0.271-0.68c0.13-0.162,0.259-0.324,0.389-0.486c0.058-0.168,0.115-0.337,0.174-0.505
			c0.127-0.251,0.348-0.434,0.485-0.661c0.071-0.201,0.142-0.401,0.214-0.603c0.122-0.162,0.245-0.324,0.368-0.486
			c0.084-0.232,0.168-0.466,0.252-0.699c0.062-0.103,0.766-0.819,0.873-0.875c0.032,0.014,0.064,0.026,0.097,0.039
			c0.172,0.292,0.024,0.691,0.02,1.089c-0.007,0.874-0.013,1.749-0.02,2.623v9.231c0,1.274-0.213,3.103,0.291,3.945
			c0.129,0.215,0.774,0.804,1.009,0.894c0.271,0.039,0.543,0.078,0.814,0.117c0.649,0.085,1.039-0.22,1.357-0.467
			c1.114-0.864,0.893-2.106,0.893-4.003V22.173c-0.062-0.385-0.088-0.872,0-1.127H79.738z M93.858,56.782
			c-0.502-1.862-1.515-3.101-3.084-3.905c-0.319-0.164-0.568-0.436-0.989-0.525c-0.699-0.148-1.301-0.291-2.095-0.291
			c-0.393,0-1.329,0.081-1.552-0.059c-0.482-0.304-0.255-1.505-0.368-2.176c-0.055-0.32-0.127-0.625-0.252-0.894
			c-0.677-1.455-1.441-2.693-2.696-3.556c-0.175-0.071-0.35-0.143-0.523-0.214c-0.259-0.169-0.518-0.337-0.776-0.506
			c-0.155-0.025-0.31-0.052-0.466-0.077c-0.316-0.098-0.633-0.194-0.95-0.292c-0.819-0.234-1.979-0.136-2.987-0.136H47.831
			c-1.156,0-2.375,0.065-3.181-0.292c-0.731-0.324-1.639-1.26-1.959-2.001c-0.071-0.239-0.142-0.479-0.213-0.719l-0.485-0.797
			c-0.039-0.168-0.078-0.337-0.116-0.505c-0.168-0.279-0.336-0.557-0.504-0.835c-0.078-0.253-0.155-0.506-0.233-0.758l-0.388-0.583
			c-0.097-0.305-0.194-0.609-0.291-0.914c-0.116-0.162-0.232-0.324-0.35-0.485c-0.084-0.279-0.168-0.558-0.252-0.836
			c-0.129-0.188-0.259-0.376-0.388-0.563c-0.097-0.292-0.194-0.583-0.291-0.875c-0.243-0.327-0.44-0.755-0.698-1.088
			c-1.13-1.463-2.443-2.557-4.287-3.324c-0.357-0.148-0.629-0.382-1.086-0.485c-1.399-0.316-3.037-0.312-4.791-0.312H15.982
			c-1.679,0-3.341-0.072-4.636,0.331c-0.328,0.103-0.564,0.288-0.814,0.447L9.911,29.81c-0.984,0.617-1.718,1.501-2.327,2.507
			c-0.117,0.142-0.233,0.284-0.349,0.427c-0.078,0.299-0.155,0.597-0.233,0.895c-0.059,0.194-0.186,0.321-0.213,0.544
			c-0.116,0.007-0.233,0.013-0.349,0.02v62.417h0.349c0.525,1.928,1.471,3.382,3.045,4.257l0.466,0.369
			c0.292,0.185,1.05,0.467,1.416,0.524v0.351h53.319c0.006-1.24,0-2.771,0-4.179c0-0.646,0.133-1.333-0.174-1.691
			c-0.255-0.296-2.01-0.175-2.619-0.175H23.625c-0.586-0.213-0.188-1.499-0.058-1.942c0.215-0.735,0.227-1.686,0.426-2.526
			c0.149-0.57,0.298-1.141,0.446-1.711c0.151-0.747,0.139-1.484,0.311-2.156c0.11-0.421,0.22-0.842,0.33-1.263
			c0.045-0.435,0.09-0.868,0.136-1.303c0.174-0.726,0.349-1.451,0.524-2.177c0.064-0.537,0.129-1.075,0.194-1.613
			c0.148-0.576,0.297-1.152,0.446-1.729c0.064-0.557,0.129-1.114,0.194-1.671c0.142-0.531,0.285-1.063,0.427-1.594
			c0.058-0.525,0.116-1.05,0.175-1.574c0.155-0.616,0.31-1.231,0.465-1.847c0.052-0.467,0.104-0.932,0.155-1.398
			c0.174-0.726,0.349-1.451,0.523-2.177c0.039-0.382,0.078-0.765,0.117-1.146c0.138-0.704,0.289-1.365,0.484-2.021
			c0.064-0.544,0.129-1.088,0.194-1.632c0.155-0.609,0.311-1.218,0.466-1.826c0.167-0.813,0.158-1.662,0.388-2.353
			c0.247-0.738,0.259-1.378,0.795-1.807c0.188-0.137,0.375-0.272,0.563-0.408c0.552-0.22,2.303-0.078,3.064-0.078H84.8
			c0.806,0,2.917-0.181,3.123,0.311c0.044,0.107-0.307,2.163-0.369,2.43c-0.136,0.558-0.271,1.114-0.407,1.672
			c-0.064,0.544-0.129,1.088-0.194,1.632c-0.142,0.545-0.284,1.088-0.427,1.632c-0.051,0.486-0.103,0.972-0.154,1.458
			c-0.149,0.57-0.298,1.14-0.446,1.71c-0.065,0.558-0.13,1.114-0.194,1.672c-0.175,0.726-0.349,1.45-0.523,2.176
			c-0.064,0.537-0.13,1.075-0.194,1.613c-0.135,0.512-0.271,1.023-0.407,1.535c-0.071,0.583-0.142,1.166-0.213,1.749
			c-0.143,0.538-0.284,1.075-0.427,1.613c-0.059,0.523-0.116,1.049-0.175,1.573c-0.143,0.537-0.284,1.075-0.427,1.613
			c-0.071,0.583-0.143,1.166-0.213,1.749l-0.524,2.177c-0.064,0.537-0.129,1.075-0.193,1.612c-0.136,0.512-0.271,1.023-0.408,1.535
			l-0.193,1.652c-0.143,0.544-0.285,1.088-0.427,1.632l-0.193,1.652c-0.156,0.253-0.311,0.505-0.467,0.757
			c-0.226,0.324-0.778,0.652-1.183,0.777c-1.946,0.008-3.893,0.014-5.838,0.02c-0.538,0-1.555-0.119-1.939,0.039
			c-0.609,0.251-0.446,0.928-0.446,1.729c0,1.437-0.006,2.952,0,4.276h10.145v-0.351c2.728-0.906,4.358-2.704,5.45-5.247
			c0.215-0.5,0.121-1.188,0.271-1.748c0.148-0.577,0.297-1.153,0.446-1.73c0.052-0.479,0.104-0.958,0.155-1.438
			c0.154-0.622,0.31-1.244,0.465-1.866c0.059-0.499,0.116-0.998,0.175-1.495c0.174-0.732,0.35-1.465,0.523-2.196
			c0.059-0.512,0.117-1.023,0.175-1.535c0.142-0.538,0.284-1.076,0.427-1.613c0.058-0.525,0.116-1.05,0.174-1.574
			c0.149-0.563,0.298-1.128,0.446-1.69c0.071-0.589,0.143-1.179,0.214-1.769c0.168-0.699,0.336-1.399,0.504-2.099
			c0.065-0.524,0.13-1.05,0.194-1.574c0.136-0.519,0.271-1.037,0.407-1.555c0.064-0.557,0.13-1.113,0.194-1.671
			c0.148-0.563,0.297-1.127,0.446-1.69c0.058-0.525,0.115-1.05,0.174-1.574c0.143-0.545,0.285-1.089,0.427-1.633
			c0.065-0.544,0.13-1.089,0.194-1.633c0.168-0.692,0.336-1.386,0.504-2.078c0.201-0.825,0.099-1.732,0.407-2.43v-0.039h0.33v-3.109
			H93.858z M79.854,51.613c-0.202,0.682-2.118,0.447-3.026,0.447H34.409c-1.763,0-3.469-0.049-4.849,0.33
			c-0.381,0.104-0.674,0.386-1.008,0.524c-0.143,0.039-0.284,0.078-0.427,0.117c-0.499,0.254-0.949,0.743-1.377,1.088
			c-0.533,0.431-1.071,1.002-1.455,1.574c-0.097,0.214-0.194,0.428-0.291,0.641c-0.129,0.182-0.259,0.363-0.388,0.545
			c-0.071,0.304-0.143,0.608-0.214,0.913c-0.173,0.499-0.358,1.041-0.465,1.613c-0.052,0.479-0.104,0.958-0.155,1.438
			c-0.149,0.577-0.297,1.153-0.446,1.73c-0.058,0.518-0.116,1.036-0.174,1.554c-0.143,0.545-0.285,1.088-0.427,1.632
			c-0.104,0.752-0.207,1.504-0.311,2.255l-0.407,1.535c-0.065,0.551-0.129,1.102-0.194,1.652c-0.148,0.576-0.297,1.152-0.446,1.729
			c-0.058,0.519-0.117,1.037-0.175,1.555c-0.136,0.512-0.271,1.024-0.407,1.536c-0.064,0.537-0.129,1.075-0.193,1.612
			c-0.119,0.618-0.317,1.21-0.446,1.788c-0.098,0.712-0.194,1.425-0.291,2.138c-0.142,0.544-0.285,1.088-0.427,1.632
			c-0.058,0.512-0.117,1.023-0.175,1.536c-0.142,0.544-0.284,1.088-0.427,1.632c-0.071,0.59-0.142,1.179-0.213,1.769
			c-0.136,0.511-0.271,1.023-0.407,1.535c-0.064,0.524-0.129,1.049-0.194,1.574c-0.175,0.744-0.349,1.489-0.524,2.234
			c-0.16,0.666-0.027,2.066-0.446,2.43c-0.176,0.152-0.682,0.139-0.989,0.135c-0.734-0.008-2.303,0.137-2.793-0.135
			c-0.81-0.451-0.621-1.86-0.621-3.109V38.399c0-1.117-0.242-2.897,0.407-3.382c0.139-0.104,0.3-0.082,0.485-0.155h16.371
			c0.651,0,1.352-0.045,1.843,0.136c0.161,0.06,0.886,0.532,1.047,0.661c0.443,0.352,0.646,0.738,0.95,1.243
			c0.11,0.149,0.22,0.299,0.33,0.447c0.078,0.259,0.155,0.519,0.233,0.777c0.129,0.188,0.258,0.376,0.388,0.563
			c0.071,0.246,0.142,0.493,0.213,0.739c0.149,0.232,0.297,0.465,0.446,0.699c0.071,0.246,0.142,0.492,0.213,0.738
			c0.109,0.156,0.22,0.312,0.329,0.467c0.158,0.261,0.166,0.562,0.291,0.875c0.162,0.264,0.323,0.531,0.485,0.796l0.155,0.583
			c0.168,0.278,0.336,0.557,0.504,0.835c0.093,0.248,0.102,0.469,0.213,0.681c0.93,1.758,2.56,3.329,4.461,4.12
			c0.313,0.13,0.567,0.383,0.931,0.506c0.174,0.025,0.349,0.052,0.523,0.077c0.753,0.206,1.317,0.345,2.231,0.486h33.246
			C79.433,50.393,80.069,50.89,79.854,51.613z"/>
	</g>
</g>
</svg>
