<svg xmlns="http://www.w3.org/2000/svg" width="25" height="25" xml:space="preserve" viewBox="0 0 25 25"><path fill-rule="evenodd" clip-rule="evenodd" fill="#7338AB" d="M22.275 19.98h-3.054c-.429-1.451-1.969-2.284-3.438-1.86a2.761 2.761 0 0 0-1.883 1.86H.882a.793.793 0 0 0-.798.787c0 .436.357.788.798.788h13.021c.432 1.451 1.973 2.281 3.441 1.854a2.757 2.757 0 0 0 1.878-1.854h3.054c.44 0 .798-.353.798-.788a.794.794 0 0 0-.799-.787zm-5.711 1.969a1.189 1.189 0 0 1-1.197-1.182 1.19 1.19 0 0 1 1.197-1.181c.66 0 1.195.528 1.195 1.181a1.186 1.186 0 0 1-1.195 1.182zM21.502-.104H2.588C1.206-.103.085 1.004.084 2.369v12.382c.001 1.365 1.122 2.472 2.504 2.473h18.914c1.383-.001 2.502-1.107 2.504-2.473V2.369c-.002-1.365-1.121-2.472-2.504-2.473zm.909 14.855a.905.905 0 0 1-.909.897H2.588a.905.905 0 0 1-.909-.897V2.369c0-.496.407-.897.909-.898h18.914a.905.905 0 0 1 .909.898v12.382zm-5.956-6.862v.003l-6.379-3.938a.803.803 0 0 0-1.099.25.782.782 0 0 0-.121.417v7.877c0 .435.357.787.797.787a.81.81 0 0 0 .423-.119l6.379-3.938a.783.783 0 0 0 0-1.339zM10.45 11.08V6.039l4.077 2.521-4.077 2.52z"/></svg>