<svg xmlns="http://www.w3.org/2000/svg" width="10.796" height="8.858" style="enable-background:new 0 0 10.796 8.858" xml:space="preserve"><path style="fill-rule:evenodd;clip-rule:evenodd;fill:#fff" d="M8.784 1.286V.18H.067v8.669h8.717V7.744c1.152-.672 1.859-1.893 1.859-3.229s-.707-2.558-1.859-3.229zm-.619 6.947H.687V.796h7.478v2.207a1.548 1.548 0 0 0-1.242 1.511c0 .745.534 1.368 1.241 1.512v2.207zm.619-1.231V5.441h-.31c-.514 0-.932-.416-.932-.927s.418-.926.932-.926h.31V2.026a3.112 3.112 0 0 1 1.24 2.488 3.11 3.11 0 0 1-1.24 2.488zm-5.948-2a.928.928 0 0 0-1.239.873c0 .509.417.924.93.924a.928.928 0 0 0 .929-.924v-2.43l1.859-.493v1.641a.928.928 0 0 0-1.239.871c0 .51.417.924.93.924a.927.927 0 0 0 .929-.924V2.149l-3.099.822v2.031zm-.309 1.18a.31.31 0 0 1-.31-.308c0-.17.139-.308.31-.308s.31.138.31.308a.31.31 0 0 1-.31.308zm2.479-.411a.31.31 0 0 1-.31-.308.31.31 0 0 1 .62 0 .31.31 0 0 1-.31.308z"/></svg>