<svg xmlns="http://www.w3.org/2000/svg" width="25" height="25" xml:space="preserve" viewBox="0 0 25 25"><path fill-rule="evenodd" clip-rule="evenodd" fill="#7338AB" d="M20.342 4.778V2.201H.028v20.202h20.313v-2.577a8.685 8.685 0 0 0 4.332-7.523 8.688 8.688 0 0 0-4.331-7.525zm-1.444 16.189H1.472V3.638h17.426V8.78c-1.648.333-2.893 1.786-2.893 3.522 0 1.735 1.244 3.188 2.893 3.522v5.143zm1.444-2.865v-3.641h-.722a2.168 2.168 0 0 1-2.171-2.158c0-1.19.975-2.159 2.171-2.159h.722v-3.64a7.248 7.248 0 0 1 2.889 5.799 7.26 7.26 0 0 1-2.889 5.799zM6.483 13.441a2.162 2.162 0 0 0-2.888 2.029c0 1.188.972 2.153 2.166 2.153s2.166-.966 2.166-2.153V9.81l4.333-1.149v3.823a2.162 2.162 0 0 0-2.888 2.03c0 1.187.972 2.153 2.166 2.153s2.166-.967 2.166-2.153V6.791l-7.22 1.916v4.734zm-.722 2.747a.72.72 0 0 1-.722-.717c0-.395.324-.717.722-.717s.722.322.722.717a.72.72 0 0 1-.722.717zm5.776-.957c-.398 0-.722-.321-.722-.717s.324-.718.722-.718.722.322.722.718-.324.717-.722.717z"/></svg>