<svg xmlns="http://www.w3.org/2000/svg" width="55.364" height="55.364" style="enable-background:new 0 0 55.364 55.364" xml:space="preserve"><g style="enable-background:new"><path style="fill-rule:evenodd;clip-rule:evenodd;fill:#461673" d="M8.178 47.668a27.837 27.837 0 0 0 8.875 5.983 27.722 27.722 0 0 0 5.701 1.712h6.956a1.635 1.635 0 0 0-1.187-2.797c-.201.005-.403.008-.601.008-13.593 0-24.651-11.059-24.651-24.651S14.331 3.272 27.923 3.272s24.65 11.058 24.65 24.651c0 4.962-1.474 9.754-4.264 13.858-.544.8-1.273 1.258-2.231 1.397-.957.141-1.788-.088-2.539-.698l-1.307-1.062c.156-.126.316-.243.468-.378.962-.854 1.44-2.03 1.348-3.313s-.736-2.378-1.812-3.085l-5.183-3.405a4.026 4.026 0 0 0-4.728.208 1.871 1.871 0 0 1-2.521-.143l-5.262-5.262a1.873 1.873 0 0 1-.143-2.521 4.026 4.026 0 0 0 .208-4.728l-3.406-5.183a3.959 3.959 0 0 0-3.084-1.811 3.956 3.956 0 0 0-3.314 1.347c-4.211 4.742-3.996 11.972.491 16.458L26.24 40.549a11.984 11.984 0 0 0 12.979 2.636l2.254 1.833c1.46 1.187 3.216 1.67 5.078 1.397 1.862-.273 3.405-1.24 4.464-2.797a27.83 27.83 0 0 0 4.347-10.613v-10.25a27.66 27.66 0 0 0-1.712-5.703 27.846 27.846 0 0 0-5.983-8.876A27.83 27.83 0 0 0 27.923 0 27.842 27.842 0 0 0 8.178 8.178a27.83 27.83 0 0 0-5.983 8.876A27.736 27.736 0 0 0 0 27.923c0 3.769.738 7.426 2.195 10.869a27.835 27.835 0 0 0 5.983 8.876zm32.35-9.073c-3.449 3.063-8.708 2.906-11.972-.358L17.609 27.291c-3.264-3.264-3.421-8.522-.358-11.972a.69.69 0 0 1 .554-.259l.077.003a.7.7 0 0 1 .587.344l3.405 5.183a.743.743 0 0 1-.034.894 5.164 5.164 0 0 0 .39 6.872l5.262 5.263a5.168 5.168 0 0 0 6.873.389.743.743 0 0 1 .894-.034l5.183 3.405a.7.7 0 0 1 .344.587.705.705 0 0 1-.258.629z"/></g><g style="enable-background:new"><path style="fill-rule:evenodd;clip-rule:evenodd;fill:#f64992" d="M46.136 24.23A21.38 21.38 0 0 0 26.593 8.874a1.637 1.637 0 0 0-.149 3.269 18.11 18.11 0 0 1 16.552 13.006 1.636 1.636 0 1 0 3.14-.919zm-19.842-8.818a1.636 1.636 0 0 0-.149 3.269 11.565 11.565 0 0 1 10.57 8.305 1.635 1.635 0 1 0 3.14-.918 14.835 14.835 0 0 0-13.561-10.656z"/></g></svg>