<svg xmlns="http://www.w3.org/2000/svg" width="69.205" height="69.205" style="enable-background:new 0 0 69.205 69.205" xml:space="preserve"><path style="fill-rule:evenodd;clip-rule:evenodd;fill:#381d5a" d="M57.103 24.782h-1.201a.797.797 0 0 1-.73-.507l-.018-.043a.799.799 0 0 1 .156-.877l.85-.85a7.168 7.168 0 0 0 0-10.125l-1.688-1.687a7.109 7.109 0 0 0-5.062-2.097c-1.913 0-3.71.745-5.063 2.097l-.85.85a.798.798 0 0 1-.874.158l-.048-.02a.797.797 0 0 1-.507-.729V9.749a7.166 7.166 0 0 0-7.159-7.159h-2.386c-3.947 0-7.159 3.211-7.159 7.159v1.202a.799.799 0 0 1-.515.732l-.037.015a.799.799 0 0 1-.877-.156l-.85-.85a7.113 7.113 0 0 0-5.062-2.097c-1.913 0-3.71.745-5.063 2.097l-1.687 1.687a7.167 7.167 0 0 0 0 10.125l.85.85a.798.798 0 0 1 .156.877l-.018.044a.797.797 0 0 1-.729.507H10.33c-3.947 0-7.159 3.211-7.159 7.159v2.386c0 3.947 3.211 7.158 7.159 7.158h1.202c.316 0 .603.199.728.502l.016.04a2.386 2.386 0 1 0 4.415-1.811l-.018-.045a5.556 5.556 0 0 0-5.141-3.459H10.33a2.389 2.389 0 0 1-2.386-2.386V31.94a2.39 2.39 0 0 1 2.386-2.387h1.202c2.255 0 4.273-1.357 5.143-3.463l.012-.029a5.559 5.559 0 0 0-1.189-6.083l-.85-.85a2.39 2.39 0 0 1 0-3.375l1.688-1.687a2.37 2.37 0 0 1 1.688-.699c.637 0 1.236.249 1.687.699l.85.85a5.555 5.555 0 0 0 6.083 1.189l.035-.015a5.553 5.553 0 0 0 3.458-5.141v-1.2a2.389 2.389 0 0 1 2.386-2.386h2.386a2.39 2.39 0 0 1 2.387 2.386v1.202a5.554 5.554 0 0 0 3.456 5.14l.036.015a5.56 5.56 0 0 0 6.084-1.189l.85-.85a2.369 2.369 0 0 1 1.688-.699c.637 0 1.236.249 1.688.699l1.687 1.687a2.388 2.388 0 0 1 0 3.375l-.85.85a5.555 5.555 0 0 0-1.189 6.083l.015.035a5.554 5.554 0 0 0 5.142 3.458h1.201a2.39 2.39 0 0 1 2.387 2.387v2.386a2.39 2.39 0 0 1-2.387 2.386h-1.201c-2.256 0-4.274 1.358-5.145 3.466l-.019.044c-.496 1.221.093 2.61 1.313 3.106s2.614-.094 3.11-1.314l.009-.021a.798.798 0 0 1 .73-.508h1.201c3.947 0 7.159-3.211 7.159-7.158v-2.386c.001-3.949-3.211-7.161-7.158-7.161zm-5.779 29.895a2.387 2.387 0 0 0-1.77 2.873c.107.449-.084.778-.207.935a1.094 1.094 0 0 1-.87.421H19.196c-.467 0-.745-.264-.87-.421a1.085 1.085 0 0 1-.208-.935c1.731-7.28 8.195-12.365 15.718-12.365a16.12 16.12 0 0 1 10.958 4.259 2.386 2.386 0 1 0 3.233-3.511 20.788 20.788 0 0 0-6.222-3.944c2.426-2.186 3.962-5.34 3.962-8.854 0-6.579-5.353-11.931-11.932-11.931s-11.931 5.353-11.931 11.931c0 3.522 1.543 6.684 3.979 8.869a20.859 20.859 0 0 0-5.104 2.976c-3.643 2.904-6.236 6.977-7.304 11.468a5.834 5.834 0 0 0 1.106 4.996 5.847 5.847 0 0 0 4.614 2.235h29.282c1.81 0 3.492-.814 4.614-2.235a5.837 5.837 0 0 0 1.106-4.996 2.383 2.383 0 0 0-2.873-1.771zM33.837 25.975c3.947 0 7.158 3.211 7.158 7.159s-3.211 7.159-7.158 7.159-7.159-3.212-7.159-7.159 3.212-7.159 7.159-7.159z"/></svg>