<svg xmlns="http://www.w3.org/2000/svg" width="69.205" height="69.205" style="enable-background:new 0 0 69.205 69.205" xml:space="preserve"><path style="fill-rule:evenodd;clip-rule:evenodd;fill:#381d5a" d="M57.083 8.013H12.122c-4.656 0-8.43 3.777-8.43 8.436v33.745c0 4.659 3.774 8.436 8.43 8.436h44.961c4.655 0 8.43-3.776 8.43-8.436V16.449c0-4.659-3.775-8.436-8.43-8.436zm2.81 42.18a2.811 2.811 0 0 1-2.81 2.812H12.122a2.811 2.811 0 0 1-2.81-2.812V16.449a2.811 2.811 0 0 1 2.81-2.812h44.961a2.811 2.811 0 0 1 2.81 2.812v33.744zM23.362 30.509a2.811 2.811 0 0 0-2.81 2.812V44.57a2.811 2.811 0 1 0 5.62 0V33.321a2.811 2.811 0 0 0-2.81-2.812zm11.241-5.624a2.811 2.811 0 0 0-2.81 2.812V44.57a2.811 2.811 0 1 0 5.62 0V27.697a2.812 2.812 0 0 0-2.81-2.812zm11.24-5.624a2.812 2.812 0 0 0-2.811 2.812V44.57a2.812 2.812 0 1 0 5.622 0V22.073a2.812 2.812 0 0 0-2.811-2.812z"/></svg>