<svg xmlns="http://www.w3.org/2000/svg" width="69.205" height="69.205" style="enable-background:new 0 0 69.205 69.205" xml:space="preserve"><path style="fill-rule:evenodd;clip-rule:evenodd;fill:#381d5a" d="M59.134 37.208V31.71l3.933-5.518c.521-.73.568-1.7.12-2.478L58.67 15.87a2.286 2.286 0 0 0-2.2-1.135l-6.732.656-4.749-2.749-2.8-6.174a2.286 2.286 0 0 0-2.08-1.343h-9.034c-.896 0-1.709.525-2.081 1.343l-2.799 6.174-4.749 2.749-6.732-.656a2.283 2.283 0 0 0-2.201 1.135l-4.517 7.844a2.297 2.297 0 0 0 .12 2.478l3.933 5.518v5.498l-3.933 5.518c-.521.73-.568 1.7-.12 2.478l4.517 7.844a2.282 2.282 0 0 0 2.201 1.135l6.732-.655 4.749 2.748 2.799 6.174a2.287 2.287 0 0 0 2.081 1.344h9.034c.896 0 1.709-.525 2.08-1.344l2.8-6.174 4.748-2.748 6.733.655a2.278 2.278 0 0 0 2.2-1.135l4.517-7.844a2.297 2.297 0 0 0-.12-2.478l-3.933-5.518zM42.068 52.673a2.287 2.287 0 0 0-.938 1.036l-2.494 5.499h-6.089l-2.494-5.499a2.282 2.282 0 0 0-.938-1.036l-4.454-2.578c1.11-5.049 5.657-8.829 10.93-8.829s9.821 3.78 10.931 8.829l-4.454 2.578zm-6.477-15.999c-3.697 0-6.705-3.015-6.705-6.722s3.008-6.722 6.705-6.722 6.705 3.016 6.705 6.722-3.008 6.722-6.705 6.722zm19.397 2.601 3.503 4.914-3.044 5.288-4.479-.437a15.779 15.779 0 0 0-4.698-8.184 15.744 15.744 0 0 0-3.334-2.346c2.402-2.075 3.932-5.139 3.932-8.56 0-6.234-5.059-11.305-11.276-11.305S24.316 23.716 24.316 29.95c0 3.42 1.529 6.484 3.931 8.56a15.763 15.763 0 0 0-3.333 2.346 15.777 15.777 0 0 0-4.699 8.184l-4.479.437-3.045-5.288 3.503-4.914c.277-.389.426-.855.426-1.333v-6.967c0-.478-.149-.944-.426-1.333l-3.503-4.915 3.045-5.288 5.997.584c.474.046.951-.057 1.364-.296l6.018-3.483c.413-.239.74-.601.938-1.036l2.494-5.5h6.089l2.494 5.5c.197.435.525.797.938 1.036l6.018 3.483c.412.239.889.342 1.363.296l5.998-.584 3.044 5.288-3.503 4.915a2.296 2.296 0 0 0-.426 1.333v6.967c.001.478.149.945.426 1.333z"/></svg>