<svg xmlns="http://www.w3.org/2000/svg" width="24" height="24" style="enable-background:new 0 0 55.364 55.364" xml:space="preserve" viewBox="0 0 55.364 55.364"><path style="fill-rule:evenodd;clip-rule:evenodd;fill:#461673" d="M33.21 41.079H20.058V12.802a1.83 1.83 0 0 0-.932-1.59L9.634 5.861H33.21v12.981h3.675V4.034c0-1.01-.823-1.827-1.839-1.827H2.567A1.832 1.832 0 0 0 .729 4.034v38.872c0 .823.549 1.509 1.301 1.739l15.283 8.618a1.835 1.835 0 0 0 1.832-.012c.566-.327.913-.928.913-1.578v-6.941h14.99a1.831 1.831 0 0 0 1.839-1.826V31.014H33.21v10.065zm19.391-17.032-10.144-7.323a1.102 1.102 0 0 0-1.749.885v4.768h-9.831a2.565 2.565 0 0 0-2.571 2.557 2.564 2.564 0 0 0 2.571 2.557v.002h9.831v4.77c0 .412.232.789.603.977a1.107 1.107 0 0 0 1.148-.089l10.142-7.328a1.093 1.093 0 0 0 0-1.776z"/></svg>