<svg xmlns="http://www.w3.org/2000/svg" width="20" style="enable-background:new 0 0 138.41 138.41" xml:space="preserve" viewBox="0 0 138.41 138.41"><path style="fill-rule:evenodd;clip-rule:evenodd;fill:#cfcfcf" d="M117.91 54.601c-.063-.874-.817-1.645-1.463-1.934-.687-.307-1.633-.262-2.614-.262h-4.337c-.532 0-2.283.148-2.613-.052l-.157-.052v-7.892c0-1.17.177-2.82-.052-3.868l-.053-2.77c-.219-.975-.253-2.077-.47-2.979l-.053-.888c-.708-2.885-1.336-5.624-2.403-8.154-.268-.631-.688-1.288-.994-1.881-.267-.519-.349-1.008-.627-1.516-.261-.477-.652-.957-.94-1.412-.509-.801-.878-1.633-1.412-2.404-.115-.167-.354-.302-.47-.471-2.567-3.736-6.036-7.164-9.774-9.721-.758-.519-1.563-.86-2.351-1.359-2.337-1.483-5.061-2.596-7.84-3.659-.807-.309-1.593-.32-2.456-.575-.499-.148-1.156-.393-1.673-.522-.57-.144-1.148-.139-1.672-.262h-.575c-.932-.219-2.064-.394-3.241-.366v-.157h-5.121v.157c-1.189.01-2.295.147-3.242.366h-.574c-.377.086-.835.176-1.203.262l-.731.052c-.744.252-1.693.499-2.456.732l-.731.104c-.794.286-1.648.628-2.405.941-.447.185-.814.176-1.254.366-.824.356-1.653.892-2.457 1.254-.473.214-.93.307-1.358.575a102.58 102.58 0 0 0-5.906 3.972c-.378.275-.676.714-1.045.993-1.079.814-2.164 1.797-2.979 2.875-.629.831-1.547 1.483-2.144 2.352-.381.555-.714 1.064-1.098 1.62-.115.169-.354.304-.47.471-.534.771-.903 1.603-1.411 2.404-.288.455-.68.935-.94 1.412-.278.508-.36.997-.627 1.516-.307.593-.727 1.25-.994 1.881-.902 2.137-1.453 4.463-2.142 6.795-.285.963-.294 2.095-.523 3.031v.47c-.121.537-.134 1.157-.261 1.725-.083.373.017.894-.052 1.202-.103.465.161 1.203-.051 1.567v8.153c0 .913.184 2.941-.053 3.659-.592.11-1.411.052-2.091.052h-4.808c-1.025 0-2.051-.058-2.771.262-.646.288-1.399 1.061-1.463 1.934h-.157v72.752h.157c.076 2.841 2.082 5.842 3.763 7.108.372.279.694.757 1.099.993.283.165.562.189.835.365 1.045.67 2.484 1.339 4.129 1.359v.157h81.95v-.157c2.842-.075 5.843-2.082 7.109-3.764.281-.374.75-.693.992-1.098.262-.434.368-.869.627-1.307.556-.935 1.08-2.236 1.098-3.658h.157V54.598a2.758 2.758 0 0 1-.158.003zM76.569 92.649c-.182.275-.488.518-.68.783-.367.511-1.462 1.778-2.039 1.986-.082.466.053 1.094.158 1.568v.731c.11.491.152 1.082.261 1.568.019.418.034.836.052 1.254.432 1.834.318 4.012.732 5.854.152.68.006 1.296.156 1.935.113.476.033 1.069.157 1.62.307 1.353.286 2.696-.366 3.658-.123.182-.941.812-1.15.888-.769.282-1.906.209-2.926.209h-5.279c-2.34 0-4.675.236-6.063-.73-.708-.493-1.206-1.981-.889-3.293.137-.569.057-1.265.209-1.935.452-1.995.338-4.329.784-6.323v-.784c.11-.486.15-1.078.261-1.567v-.784c.11-.486.15-1.078.261-1.568l.053-1.202c.055-.239.24-.771.104-.993-.255-.525-1.474-1.229-1.882-1.776-.728-.979-1.521-2.08-1.985-3.293-.227-.591-.38-1.235-.523-1.83-.382-1.588-.15-3.762.261-5.121.188-.616.243-1.237.524-1.777 1.28-2.462 3.146-4.514 5.696-5.696.563-.261 1.151-.331 1.776-.522.177-.055.404-.214.576-.262.651-.181 1.639.097 2.143-.209 6.221.181 9.9 4.008 11.29 9.041l.051 1.359c.579 2.581-.698 5.65-1.723 7.211zm13.067-40.244H48.138c-.822 0-3.141.16-3.659-.104v-9.407c0-1.814-.035-3.771.313-5.227l.053-.941c1.965-7.54 5.491-12.042 11.446-15.575.312-.186.607-.195.94-.366.892-.458 1.96-.98 2.979-1.306.916-.293 1.855-.421 2.77-.68.723-.204 1.547-.153 2.248-.314.313-.071.759.085.993-.052 6.499.021 10.552 1.79 14.32 4.495 1.334.957 2.569 1.988 3.555 3.293.199.264.535.458.73.731 1.021 1.417 1.959 2.798 2.719 4.495.128.288.414.646.522.94.561 1.52.966 3.06 1.359 4.757.151.65.167 1.262.26 1.881.067.445-.145 1.177.054 1.515v8.415c0 .859.198 2.858-.104 3.45z"/></svg>