<svg xmlns="http://www.w3.org/2000/svg" width="17" height="17" style="enable-background:new 0 0 55.364 55.364" xml:space="preserve" viewBox="0 0 55.364 55.364"><path style="fill-rule:evenodd;clip-rule:evenodd;fill:#f64992" d="m52.042 47.815-9.703-9.701a22.051 22.051 0 0 0 4.554-13.444 22.08 22.08 0 0 0-6.512-15.717 22.087 22.087 0 0 0-15.72-6.51 22.09 22.09 0 0 0-15.719 6.51c-8.668 8.667-8.668 22.768 0 31.434a22.086 22.086 0 0 0 15.719 6.511 22.044 22.044 0 0 0 13.446-4.554l9.703 9.702c.584.584 1.351.876 2.116.876s1.531-.292 2.115-.876a2.99 2.99 0 0 0 .001-4.231zM36.15 36.156a16.141 16.141 0 0 1-11.488 4.759c-4.339 0-8.42-1.69-11.489-4.759-6.334-6.333-6.334-16.639 0-22.973a16.148 16.148 0 0 1 11.489-4.757c4.34 0 8.42 1.69 11.488 4.757a16.137 16.137 0 0 1 4.76 11.487c0 4.339-1.691 8.417-4.76 11.486z"/></svg>