<svg xmlns="http://www.w3.org/2000/svg" width="45" height="45" viewBox="0 0 383.952 383.952" style="enable-background:new 0 0 383.952 383.952" xml:space="preserve"><path style="fill-rule:evenodd;clip-rule:evenodd;fill:#2f2f2f" d="M146.982 84.739c-.014 7.348 1.6 8.847 4.499 12.749 10.6 2.652 69.919 4.821 78.74 0 3.39-1.584 4.414-3.436 5.999-6.749.015-7.348-1.6-8.847-4.499-12.749-21.157-5.151-52.516-1.659-76.491-1.5-4.065 2.685-5.978 3.7-8.248 8.249zm236.221 4.5c-3.845-11.171-31.895-17.718-42.745-22.497L237.721 20.248C223.655 14.034 206.755.178 188.977 0L51.744 62.992C41.45 67.508 7.342 78.718 2.25 86.239 1.256 87.707.528 89.645 0 91.91v272.964c1.073 7.808 2.74 14.009 5.25 17.578a92.37 92.37 0 0 0 7.799 1.499h358.546c2.525-.393 4.454-.886 5.607-1.499 4.148-2.032 5.996-6.871 6.749-12.855V226.472c-.248-45.74-.499-91.493-.748-137.233zM153.731 361.455H86.989v-67.491h21.747c-.237 10.545 1.175 15.422 5.25 20.997 3.891 1.127 7.668 2.145 11.249 0 6.575-3.049 7.285-10.963 6.749-20.997h21.748l-.001 67.491zm0-89.989H86.989v-67.492h21.747c-.237 10.545 1.175 15.423 5.25 20.998 3.891 1.127 7.668 2.145 11.249 0 6.575-3.049 7.285-10.963 6.749-20.998h21.748l-.001 67.492zm142.482 89.989h-66.742v-67.491h21.747c-.237 10.545 1.176 15.422 5.25 20.997 3.891 1.127 7.668 2.145 11.248 0 6.575-3.049 7.285-10.963 6.749-20.997h21.748v67.491zm0-89.989c-15.423-.119-74.443-3.23-83.24 1.5-10.823 5.399-7.096 69.264-6.749 88.488h-29.246V236.22c0-18.592 2.415-42.295-5.25-53.243-23.573-5.727-58.267-1.659-84.739-1.5v-22.498h209.224v112.487zm64.492 89.989h-41.244V202.476c0-20.895 3.61-51.817-5.25-64.492-15.804-3.824-39.332-1.5-57.742-1.5H134.984c-14.691 0-54.551-3.809-64.492 1.5-11.37 5.779-6.75 38.879-6.749 55.493v167.979H23.248V99.739l167.229-75.741 170.229 75.741-.001 261.716z"/></svg>